<svg version="1" xmlns="http://www.w3.org/2000/svg" width="853.333" height="853.333" viewBox="0 0 640.000000 640.000000"><path d="M297.9.4c-.2.2-3.5.7-7.4 1-3.8.4-7.7.9-8.5 1.1-.8.2-3.7.6-6.4 1-2.7.3-5.2.8-5.5 1-.3.1-2.4.6-4.6.9-4.6.7-25 6.2-28 7.5-1.1.5-4.9 1.9-8.5 3.1-8.4 2.9-14.2 5.4-26.5 11.3C192.9 32 174 42.6 173 44c-.3.3-2.1 1.6-4.2 2.8-5 3.1-21.2 15.6-28.8 22.2-12.6 11-26.4 25.4-36.4 38-3.7 4.7-7.4 9.3-8.2 10.3-2 2.4-14.4 20.8-14.4 21.3 0 .2-1.5 2.7-3.3 5.6-17.7 27.9-35.3 74.3-41.6 110.3-.6 3.3-1.3 6.9-1.5 8-.2 1.1-.7 4.5-1.1 7.5-.4 3-.9 6.3-1.1 7.3-1.1 6.3-1.9 23.3-1.9 43.2.1 20.2.5 29.3 1.9 41 .2 1.6.7 5.5 1 8.5.4 3 .9 6.2 1.1 7 .2.8.7 3.1 1 5 7.1 42 24.4 86.4 48.3 123.5 15.2 23.6 37.6 49.5 56.7 65.6 2.2 1.9 4.6 4 5.4 4.7.8.8 3.9 3.2 7 5.5s5.8 4.5 6.1 4.8c.8.9 21 14.2 26 17.1 28.8 16.5 65.6 29.8 92 33.2 2.5.3 5.6.8 7 1.1 10.1 2 49.6 2.7 64.5 1.2 62.9-6.5 125.1-37.7 170.9-85.6 2.8-2.9 6.5-6.8 8.1-8.5 10.4-10.8 30.8-39.4 39.8-55.7 17.7-32.1 31-68.1 37.2-100.6.6-3.5 2.6-15.1 3-17.8 2.7-19.9 3.3-29.4 3-55-.2-13.8-.5-26.4-.8-28-.3-1.7-.8-5.5-1.1-8.5-.3-3-.8-7.1-1.1-9-.3-1.9-.8-5.3-1-7.5-.3-2.2-.8-4.7-1-5.5-.2-.8-.7-3-1-4.8-.4-2.7-2.6-12.3-4.9-21.7-4.3-17.4-13.5-42.3-23.2-62.2C537.8 88.8 468.2 29.6 388.5 8.5 383 7.1 376 5.4 373 4.9c-9.6-1.7-17.4-3.1-20.5-3.5-3.9-.6-54-1.5-54.6-1z"/></svg>